<svg id="Слой_1" data-name="Слой 1" xmlns="http://www.w3.org/2000/svg" xmlns:xlink="http://www.w3.org/1999/xlink" viewBox="0 0 382.88 338.85"><defs><style>.cls-1{fill:none;}.cls-2{clip-path:url(#clip-path);}.cls-3{fill:#fff;}</style><clipPath id="clip-path" transform="translate(0 0)"><rect class="cls-1" width="382.88" height="338.85"/></clipPath></defs><title>deposit</title><g class="cls-2"><path class="cls-3" d="M287,1.93c10.48-5,24.3.18,29,10.77,2.88,6.54,5.39,13.25,8.13,19.85-2.69,3.73-7,5.6-11.08,7.38q-81.6,33.44-163.2,66.91c-4,1.63-8.29,1-12.43,1.11-24,0-48,0-72,0-10.83.08-21.47,6.33-26.17,16.19-4.66,9.17-2.42,19.69-3.39,29.53-9,2.28-16.73,8.18-25.89,9.62-2.8-7.58-6.24-14.91-8.9-22.54-3.62-10.52,2.57-22.86,12.82-26.86Q150.47,57.93,287,1.93" transform="translate(0 0)"/><path class="cls-3" d="M238.23,107.85q49.72-21.12,100-41c5.38,13.71,11.74,27.09,16.31,41.09-38.77,0-77.55.15-116.32-.09" transform="translate(0 0)"/><path class="cls-3" d="M59.86,115c4.15-.68,8.38-.36,12.57-.41q144.52,0,289.06,0c11.81-.1,21.93,11.05,21.3,22.74-.38,51.66.65,103.39-.63,155-.56,9.61,1.76,19.26.13,28.84a22.12,22.12,0,0,1-17.89,17.18c-20.64,1.55-41.35-1.09-62,.41-79.33-.1-158.67,0-238-.06-11,.1-21.27-9.26-21.64-20.39,0-61.3-.3-122.64,0-183.95.59-9.29,8.06-17.47,17.08-19.38m14,42c-4.13,1.55-6.24,6.12-6,10.35.08,11-.12,22,.1,33a9.38,9.38,0,0,0,9.36,9.25c16.69.15,33.39,0,50.08.07,5.26.47,10.95-3.72,10.54-9.31,0-11.7,0-23.4,0-35.09a8.73,8.73,0,0,0-9.5-8.71c-18.2.3-36.47-.51-54.62.4M284.63,271.54c-11.44,7.49-14.31,24.73-5.91,35.51,8.73,12.62,28.4,13.24,38.79,2.33,6.21,5.6,14.48,9,22.93,8.06a29.65,29.65,0,0,0,18.09-13.12c5.49-10.83,2.62-25.5-7.65-32.48-10-7.56-24.71-5.52-33.34,3.2-8.51-8.6-22.9-10.71-32.91-3.5" transform="translate(0 0)"/><path class="cls-3" d="M23.53,195.62c4.16-1.83,8.36-3.55,12.6-5.19,0,11.73.16,23.46-.1,35.19-4.7-9.75-8.57-19.91-12.5-30" transform="translate(0 0)"/></g></svg>