<?xml version="1.0" encoding="utf-8"?>
<!-- Generator: Adobe Illustrator 16.0.0, SVG Export Plug-In . SVG Version: 6.00 Build 0)  -->
<!DOCTYPE svg PUBLIC "-//W3C//DTD SVG 1.1//EN" "http://www.w3.org/Graphics/SVG/1.1/DTD/svg11.dtd">
<svg version="1.1" id="Layer_1" xmlns="http://www.w3.org/2000/svg" xmlns:xlink="http://www.w3.org/1999/xlink" x="0px" y="0px"
	 width="2560px" height="538.474px" viewBox="0 437.604 2560 538.474" enable-background="new 0 437.604 2560 538.474"
	 xml:space="preserve">
<path fill="#C8CBCE" d="M1179.093,571.979c32.023,0,56.674,5.529,73.722,16.818c17.279,11.288,25.803,29.719,25.803,55.291
	c0,25.803-8.754,44.464-26.032,55.983c-17.278,11.519-42.16,17.278-74.413,17.278h-15.205v71.879h-48.381V577.509
	c10.598-2.073,21.656-3.456,33.405-4.377C1159.972,572.44,1170.338,571.979,1179.093,571.979z M1182.318,613.218
	c-3.456,0-6.912,0-10.367,0.23s-6.451,0.461-8.755,0.691v61.973h15.206c16.817,0,29.258-2.304,37.782-6.911
	c8.524-4.608,12.671-12.901,12.671-25.343c0-5.989-1.152-11.058-3.226-14.975c-2.073-3.916-5.299-7.142-9.215-9.445
	c-3.917-2.304-8.985-3.917-14.745-5.068C1195.681,613.679,1189.229,613.218,1182.318,613.218z"/>
<path fill="#C8CBCE" d="M1436.891,789.229c-2.305-7.372-5.069-15.205-7.604-23.038c-2.764-7.833-5.529-15.666-8.293-23.499h-83.859
	c-2.765,7.833-5.529,15.666-8.063,23.499c-2.765,7.833-5.299,15.436-7.603,23.038h-50.223c8.062-23.038,15.666-44.464,23.037-64.046
	c7.143-19.582,14.284-38.013,21.195-55.522c6.912-17.509,13.823-33.865,20.504-49.531c6.682-15.666,13.823-30.871,20.965-45.616
	h45.847c7.142,14.745,14.053,30.181,20.964,45.616c6.912,15.666,13.823,32.022,20.734,49.531
	c6.912,17.51,14.054,35.94,21.426,55.522s14.975,41.008,23.038,64.046H1436.891L1436.891,789.229z M1378.834,623.125
	c-1.152,3.225-2.765,7.372-4.838,12.671c-2.074,5.299-4.377,11.519-7.143,18.66c-2.764,7.143-5.529,14.745-8.984,23.269
	c-3.226,8.524-6.682,17.279-9.906,26.725h61.512c-3.226-9.215-6.451-18.2-9.445-26.725c-2.995-8.523-5.99-16.356-8.755-23.269
	c-2.765-7.142-5.299-13.132-7.372-18.66C1381.828,630.267,1380.216,626.119,1378.834,623.125z"/>
<path fill="#C8CBCE" d="M1565.213,662.52c8.754-14.514,17.048-29.258,24.881-43.772c7.833-14.514,15.205-29.258,21.656-44.233
	h53.218c-11.749,23.038-23.96,45.616-36.631,67.271c-12.671,21.656-26.033,43.542-40.087,65.429v82.016h-48.379v-81.555
	c-14.054-21.887-27.416-43.772-40.087-65.659c-12.671-21.886-24.882-44.464-36.631-67.502h55.982
	c6.681,14.745,13.823,29.489,21.426,44.233C1548.395,633.262,1556.688,648.006,1565.213,662.52z"/>
<path fill="#9BA1A6" d="M1739.381,574.514c3.686,6.912,8.063,15.205,12.901,25.342c4.838,10.138,9.906,20.965,15.205,32.484
	c5.299,11.749,10.598,23.499,15.666,35.709s10.137,23.729,14.515,34.327c4.607-10.828,9.445-22.117,14.514-34.327
	s10.367-24.19,15.666-35.709c5.299-11.75,10.367-22.577,15.205-32.484c4.838-9.906,9.215-18.43,12.9-25.342h44.004
	c2.073,14.284,3.916,30.181,5.759,47.92s3.226,35.939,4.608,55.061c1.382,19.122,2.533,38.244,3.686,57.596
	c1.152,19.122,2.073,37.322,2.995,54.14h-46.998c-0.691-20.965-1.382-43.542-2.534-68.192c-0.922-24.651-2.534-49.302-4.607-74.414
	c-3.687,8.755-7.833,18.2-12.441,28.798c-4.607,10.598-8.984,20.965-13.592,31.562s-8.755,20.504-12.901,30.18
	c-4.147,9.677-7.603,17.739-10.598,24.651h-33.866c-2.995-6.912-6.451-14.975-10.598-24.651c-4.146-9.676-8.523-19.582-12.901-30.18
	c-4.377-10.598-8.984-20.965-13.593-31.562c-4.607-10.598-8.754-20.043-12.44-28.798c-2.073,25.112-3.686,49.763-4.607,74.414
	c-1.151,24.65-1.843,47.228-2.534,68.192h-46.998c0.922-17.048,1.844-35.018,2.995-54.14c1.151-19.121,2.304-38.474,3.687-57.596
	c1.382-19.121,2.994-37.552,4.607-55.061c1.843-17.739,3.686-33.636,5.76-47.92H1739.381z"/>
<path fill="#9BA1A6" d="M1956.4,789.229V574.514h144.91v40.548h-96.76v42.159h85.932v39.626h-85.932v51.836h103.901v40.547H1956.4z"
	/>
<path fill="#9BA1A6" d="M2241.613,611.605c-22.578,0-38.705,6.221-48.842,18.661s-14.975,29.488-14.975,51.375
	c0,10.598,1.152,20.043,3.687,28.567c2.534,8.523,6.22,15.896,11.058,22.116c5.068,6.221,11.059,11.059,18.661,14.515
	c7.372,3.455,16.127,5.068,26.033,5.068c5.299,0,9.906,0,13.823-0.23c3.916-0.23,7.142-0.691,10.137-1.152v-74.644h48.38v106.206
	c-5.76,2.304-14.975,4.607-27.876,7.372c-12.901,2.534-28.567,3.917-47.459,3.917c-16.127,0-30.641-2.535-43.772-7.373
	c-13.132-5.068-24.42-12.21-33.636-21.655c-9.215-9.446-16.587-21.195-21.425-35.019c-5.068-13.822-7.603-29.719-7.603-47.458
	c0-17.97,2.765-33.866,8.293-47.689c5.529-13.822,13.132-25.572,23.039-35.248c9.676-9.676,21.194-16.818,34.326-21.887
	s27.186-7.372,41.93-7.372c10.137,0,19.352,0.691,27.416,2.073c8.062,1.383,15.205,2.995,20.964,4.608
	c5.99,1.843,10.828,3.455,14.515,5.528c3.916,1.844,6.45,3.226,8.293,4.378l-14.053,38.704c-6.682-3.456-14.283-6.451-22.808-9.216
	S2251.75,611.605,2241.613,611.605z"/>
<path fill="#9BA1A6" d="M2496.185,789.229c-2.304-7.372-5.068-15.205-7.603-23.038c-2.765-7.833-5.529-15.666-8.294-23.499h-83.858
	c-2.766,7.833-5.529,15.666-8.064,23.499c-2.764,7.833-5.299,15.436-7.602,23.038h-50.224c8.063-23.038,15.666-44.464,23.038-64.046
	c7.142-19.582,14.283-38.013,21.195-55.522c6.911-17.509,13.822-33.865,20.504-49.531c6.681-15.666,13.822-30.871,20.965-45.616
	h45.846c7.142,14.976,14.053,30.181,20.965,45.616c6.911,15.666,13.822,32.022,20.734,49.531
	c6.911,17.51,14.053,35.94,21.426,55.522c7.371,19.582,14.975,41.008,23.038,64.046H2496.185L2496.185,789.229z M2438.129,623.125
	c-1.152,3.225-2.765,7.372-4.838,12.671c-2.074,5.299-4.378,11.519-7.143,18.66c-2.764,7.143-5.529,14.745-8.984,23.269
	c-3.226,8.524-6.682,17.279-9.906,26.725h61.512c-3.226-9.215-6.451-18.2-9.446-26.725c-2.995-8.523-5.989-16.356-8.755-23.269
	c-2.764-7.142-5.299-13.132-7.371-18.66C2441.123,630.267,2439.511,626.119,2438.129,623.125z"/>
<g>
	<path fill="#FFFFFF" d="M1116.199,867.329V825.86h25.111v5.068h-19.122v12.44h17.049v4.838h-17.049v19.122H1116.199z"/>
	<path fill="#FFFFFF" d="M1198.906,825.86h5.76v41.469h-5.76V825.86z"/>
	<path fill="#FFFFFF" d="M1294.514,867.329c-0.921-1.383-1.843-3.226-2.994-5.068c-1.152-1.843-2.305-3.687-3.687-5.76
		s-2.765-3.916-4.146-5.99c-1.382-2.073-2.765-3.916-4.147-5.989c-1.382-1.844-2.764-3.687-4.146-5.299
		c-1.382-1.613-2.534-3.226-3.686-4.378v32.484h-5.76V825.86h4.607c1.843,2.073,3.916,4.377,5.99,6.911
		c2.073,2.765,4.146,5.299,6.45,8.294c2.073,2.765,4.147,5.529,5.99,8.294s3.456,5.068,4.607,7.142V825.86h5.76v41.469H1294.514z"/>
	<path fill="#FFFFFF" d="M1388.74,867.329c-0.691-1.843-1.383-3.456-1.844-5.299c-0.69-1.843-1.151-3.456-1.842-5.299h-18.892
		l-3.687,10.598h-5.99c1.613-4.377,2.996-8.524,4.608-12.21c1.382-3.687,2.765-7.373,4.146-10.598
		c1.382-3.456,2.765-6.451,3.917-9.677c1.382-2.994,2.764-5.989,4.146-8.984h5.299c1.383,2.995,2.765,5.99,4.146,8.984
		c1.383,2.995,2.534,6.221,3.917,9.677c1.382,3.455,2.765,6.911,4.146,10.598c1.382,3.686,2.995,7.833,4.608,12.21H1388.74z
		 M1383.211,852.124c-1.382-3.456-2.534-6.912-3.916-10.137c-1.152-3.226-2.535-6.451-3.917-9.446
		c-1.382,2.995-2.765,6.221-3.917,9.446c-1.151,3.225-2.533,6.681-3.686,10.137H1383.211z"/>
	<path fill="#FFFFFF" d="M1480.432,867.329c-0.922-1.383-1.843-3.226-2.994-5.068c-1.152-1.843-2.305-3.687-3.687-5.76
		s-2.765-3.916-4.147-5.99c-1.382-2.073-2.764-3.916-4.146-5.989c-1.382-1.844-2.764-3.687-4.146-5.299
		c-1.383-1.613-2.534-3.226-3.686-4.378v32.484h-5.76V825.86h4.607c1.843,2.073,3.916,4.377,5.99,6.911
		c2.073,2.765,4.146,5.299,6.45,8.294c2.073,2.765,4.147,5.529,5.989,8.294c1.844,2.765,3.456,5.068,4.608,7.142V825.86h5.759
		v41.469H1480.432z"/>
	<path fill="#FFFFFF" d="M1564.291,868.25c-2.995,0-5.529-0.46-8.063-1.382s-4.377-2.304-6.22-4.146
		c-1.613-1.844-2.996-4.147-3.917-6.912c-0.922-2.765-1.382-5.759-1.382-9.215s0.461-6.451,1.612-9.216
		c1.151-2.764,2.534-5.068,4.377-6.911s3.917-3.226,6.221-4.146c2.304-0.922,4.838-1.383,7.603-1.383
		c1.613,0,3.226,0.23,4.607,0.461c1.383,0.23,2.534,0.461,3.686,0.922c0.922,0.23,1.844,0.69,2.535,0.921s1.151,0.461,1.382,0.691
		l-1.612,4.838c-0.461-0.23-0.922-0.461-1.613-0.691c-0.691-0.229-1.382-0.46-2.304-0.921c-0.921-0.23-1.843-0.461-2.765-0.691
		s-2.073-0.23-2.994-0.23c-2.305,0-4.147,0.461-5.99,1.152c-1.844,0.69-3.226,1.843-4.607,3.225
		c-1.383,1.383-2.074,3.226-2.766,5.299c-0.69,2.074-0.921,4.378-0.921,6.912s0.23,4.838,0.921,6.681
		c0.691,2.073,1.383,3.687,2.535,5.299c1.151,1.383,2.533,2.534,4.377,3.456c1.843,0.921,3.686,1.151,5.99,1.151
		c2.764,0,4.838-0.23,6.681-0.921c1.843-0.461,2.995-1.152,3.917-1.383l1.382,4.838c-0.23,0.23-0.691,0.461-1.382,0.691
		c-0.691,0.23-1.613,0.691-2.766,0.922c-1.151,0.23-2.303,0.46-3.686,0.69S1565.904,868.25,1564.291,868.25z"/>
	<path fill="#FFFFFF" d="M1634.327,825.86h5.759v41.469h-5.759V825.86z"/>
	<path fill="#FFFFFF" d="M1729.475,867.329c-0.691-1.843-1.383-3.456-1.843-5.299c-0.691-1.843-1.152-3.456-1.843-5.299h-18.892
		l-3.687,10.598h-5.99c1.613-4.377,2.996-8.524,4.608-12.21c1.382-3.687,2.765-7.373,4.146-10.598
		c1.382-3.456,2.765-6.451,3.917-9.677c1.382-2.994,2.764-5.989,4.146-8.984h5.299c1.383,2.995,2.765,5.99,4.146,8.984
		c1.383,2.995,2.534,6.221,3.917,9.677c1.382,3.455,2.765,6.911,4.146,10.598c1.382,3.686,2.995,7.833,4.608,12.21H1729.475z
		 M1723.945,852.124c-1.383-3.456-2.534-6.912-3.916-10.137c-1.152-3.226-2.535-6.451-3.917-9.446
		c-1.382,2.995-2.765,6.221-3.917,9.446c-1.151,3.225-2.533,6.681-3.686,10.137H1723.945z"/>
	<path fill="#FFFFFF" d="M1817.711,862.491v5.068h-24.881v-41.469h5.759v36.4H1817.711z"/>
	<path fill="#FFFFFF" d="M1949.259,863.182c5.989,0,9.215-2.073,9.215-6.22c0-1.383-0.23-2.304-0.921-3.226
		c-0.461-0.921-1.383-1.612-2.074-2.304c-0.922-0.691-2.073-1.151-3.225-1.612c-1.152-0.461-2.535-0.922-3.687-1.383
		c-1.612-0.461-2.995-1.151-4.378-1.843c-1.382-0.691-2.533-1.383-3.455-2.304c-0.922-0.922-1.844-2.073-2.304-3.226
		c-0.691-1.151-0.922-2.765-0.922-4.607c0-3.687,1.151-6.451,3.687-8.524c2.533-2.073,5.989-2.995,10.137-2.995
		c2.533,0,4.838,0.23,6.911,0.922s3.456,1.151,4.607,1.843l-1.843,4.838c-0.922-0.46-2.073-0.921-3.686-1.612
		c-1.613-0.691-3.687-0.691-5.76-0.691c-1.152,0-2.074,0.23-3.226,0.461s-1.843,0.691-2.534,1.152
		c-0.691,0.46-1.383,1.151-1.613,1.843c-0.461,0.691-0.69,1.612-0.69,2.534c0,1.152,0.229,2.073,0.69,2.765s1.152,1.382,1.844,2.073
		s1.843,1.152,2.765,1.612c0.921,0.461,2.304,0.922,3.456,1.383c1.842,0.691,3.455,1.382,4.838,2.073
		c1.612,0.691,2.764,1.612,3.916,2.534s1.843,2.073,2.534,3.456c0.69,1.382,0.921,2.995,0.921,5.068c0,3.686-1.382,6.45-3.916,8.294
		c-2.534,1.843-6.451,2.994-11.289,2.994c-1.612,0-3.225,0-4.607-0.229c-1.382-0.23-2.534-0.461-3.686-0.691
		c-1.152-0.23-2.074-0.691-2.765-0.922c-0.691-0.23-1.382-0.691-1.843-0.921l1.843-4.839c0.921,0.461,2.304,1.152,4.146,1.844
		C1944.189,863.412,1946.494,863.182,1949.259,863.182z"/>
	<path fill="#FFFFFF" d="M2022.52,867.329V825.86h25.342v5.068h-19.582v12.44h17.279v4.838h-17.279v14.284h20.965v5.068h-26.725
		V867.329z"/>
	<path fill="#FFFFFF" d="M2127.344,850.051c0.691,0.69,1.382,1.843,2.534,3.225c1.151,1.383,2.073,2.765,2.995,4.378
		c1.151,1.612,2.073,3.225,2.994,4.838c0.922,1.612,1.844,3.455,2.535,5.068h-6.451c-0.691-1.613-1.613-2.995-2.534-4.607
		c-0.922-1.613-1.843-2.995-2.765-4.378c-0.922-1.382-1.843-2.765-2.765-3.916c-0.922-1.152-1.843-2.304-2.534-3.226
		c-0.461,0-1.152,0-1.612,0c-0.461,0-1.152,0-1.613,0h-5.299v16.127h-5.759v-41.008c1.612-0.461,3.455-0.691,5.529-0.922
		c2.073-0.23,3.916-0.23,5.529-0.23c5.759,0,10.367,1.152,13.361,3.226c2.995,2.304,4.607,5.529,4.607,9.906
		c0,2.765-0.69,5.068-2.073,7.142C2132.412,847.746,2130.108,849.129,2127.344,850.051z M2118.589,830.468
		c-2.534,0-4.377,0-5.76,0.23v15.666h4.147c2.073,0,3.686,0,5.299-0.23c1.612-0.23,2.994-0.691,4.146-1.151
		c1.152-0.461,1.843-1.383,2.534-2.305c0.691-0.921,0.922-2.304,0.922-4.146c0-1.612-0.23-2.765-0.922-3.916
		c-0.691-1.152-1.382-1.844-2.534-2.534c-0.922-0.691-2.304-0.922-3.686-1.152C2121.584,830.698,2120.201,830.468,2118.589,830.468z
		"/>
	<path fill="#FFFFFF" d="M2228.711,825.86c-1.612,4.377-2.994,8.524-4.377,12.21c-1.382,3.687-2.765,7.372-4.146,10.598
		c-1.383,3.456-2.534,6.451-3.917,9.676c-1.382,2.995-2.534,5.99-3.916,8.985h-5.299c-1.382-2.995-2.765-5.99-3.917-8.985
		c-1.151-2.994-2.533-6.22-3.916-9.676s-2.765-6.911-4.146-10.598c-1.383-3.686-2.766-7.833-4.378-12.21h6.451
		c2.073,6.221,4.377,12.44,6.45,18.2s4.146,11.289,6.451,16.357c2.304-5.068,4.377-10.598,6.45-16.357s4.147-11.979,6.221-18.2
		H2228.711z"/>
	<path fill="#FFFFFF" d="M2285.615,825.86h5.76v41.469h-5.76V825.86z"/>
	<path fill="#FFFFFF" d="M2370.627,868.25c-2.996,0-5.529-0.46-8.063-1.382s-4.378-2.304-6.221-4.146
		c-1.612-1.844-2.995-4.147-3.917-6.912c-0.921-2.765-1.382-5.759-1.382-9.215s0.461-6.451,1.612-9.216
		c1.152-2.764,2.535-5.068,4.378-6.911s3.917-3.226,6.22-4.146c2.305-0.922,4.838-1.383,7.604-1.383c1.612,0,3.225,0.23,4.607,0.461
		c1.382,0.23,2.534,0.461,3.686,0.922c0.922,0.23,1.844,0.69,2.534,0.921c0.691,0.23,1.152,0.461,1.383,0.691l-1.612,4.838
		c-0.461-0.23-0.922-0.461-1.613-0.691c-0.69-0.229-1.382-0.46-2.304-0.921c-0.921-0.23-1.843-0.461-2.765-0.691
		c-0.921-0.23-2.073-0.23-2.994-0.23c-2.305,0-4.147,0.461-5.99,1.152c-1.844,0.69-3.226,1.843-4.607,3.225
		c-1.383,1.383-2.074,3.226-2.766,5.299c-0.69,2.074-0.921,4.378-0.921,6.912s0.23,4.838,0.921,6.681
		c0.691,2.073,1.383,3.687,2.535,5.299c1.151,1.383,2.534,2.534,4.377,3.456c1.844,0.921,3.686,1.151,5.99,1.151
		c2.764,0,4.838-0.23,6.681-0.921c1.843-0.461,2.995-1.152,3.917-1.383l1.382,4.838c-0.23,0.23-0.691,0.461-1.382,0.691
		c-0.691,0.23-1.613,0.691-2.765,0.922c-1.152,0.23-2.304,0.46-3.687,0.69C2374.083,868.48,2372.239,868.25,2370.627,868.25z"/>
	<path fill="#FFFFFF" d="M2440.662,867.329V825.86h25.343v5.068h-19.583v12.44h17.279v4.838h-17.279v14.284h20.965v5.068h-26.725
		V867.329z"/>
	<path fill="#FFFFFF" d="M2536.501,863.182c5.99,0,9.216-2.073,9.216-6.22c0-1.383-0.23-2.304-0.922-3.226
		c-0.461-0.921-1.383-1.612-2.073-2.304c-0.922-0.691-2.073-1.151-3.226-1.612s-2.534-0.922-3.686-1.383
		c-1.613-0.461-2.996-1.151-4.378-1.843s-2.534-1.383-3.456-2.304c-0.921-0.922-1.843-2.073-2.304-3.226
		c-0.69-1.151-0.921-2.765-0.921-4.607c0-3.687,1.151-6.451,3.686-8.524s5.99-2.995,10.137-2.995c2.534,0,4.838,0.23,6.912,0.922
		c2.073,0.691,3.455,1.151,4.607,1.843l-1.844,4.838c-0.921-0.46-2.073-0.921-3.686-1.612c-1.613-0.691-3.687-0.691-5.76-0.691
		c-1.152,0-2.073,0.23-3.226,0.461c-1.151,0.23-1.843,0.691-2.534,1.152c-0.691,0.46-1.382,1.151-1.612,1.843
		c-0.461,0.691-0.691,1.612-0.691,2.534c0,1.152,0.23,2.073,0.691,2.765s1.151,1.382,1.843,2.073s1.844,1.152,2.765,1.612
		c0.922,0.461,2.304,0.922,3.456,1.383c1.843,0.691,3.455,1.382,4.838,2.073c1.612,0.691,2.765,1.612,3.916,2.534
		c1.152,0.922,1.844,2.073,2.534,3.456c0.691,1.382,0.922,2.995,0.922,5.068c0,3.686-1.382,6.45-3.916,8.294
		c-2.534,1.843-6.451,2.994-11.289,2.994c-1.612,0-3.226,0-4.607-0.229c-1.383-0.23-2.534-0.461-3.687-0.691
		c-1.151-0.23-2.073-0.691-2.764-0.922c-0.691-0.23-1.383-0.691-1.844-0.921l1.844-4.839c0.921,0.461,2.303,1.152,4.146,1.844
		C2531.433,863.412,2533.736,863.182,2536.501,863.182z"/>
</g>
<g>
	<path fill="#9BA1A6" d="M588.625,718.963c0-41.008,11.979-79.021,32.483-111.044c-32.714-41.469-83.167-67.731-139.61-67.731
		c-98.374,0-178.776,80.173-178.776,178.775c0,98.604,80.172,178.776,178.776,178.776c56.443,0,106.896-26.264,139.61-67.502
		C600.604,797.984,588.625,759.971,588.625,718.963z"/>
</g>
<g>
	<path fill="#9BA1A6" d="M275.076,718.963c0-47.228,16.126-91,42.851-125.788c-32.254-32.483-76.948-52.757-126.479-52.757
		c-98.604,0-178.546,79.942-178.546,178.775c0,98.834,80.173,178.776,178.776,178.776c49.532,0,94.456-20.273,126.709-52.758
		C291.202,809.964,275.076,766.191,275.076,718.963z"/>
</g>
<g>
	<path fill="#FFFFFF" d="M220.245,625.429c11.75,4.377,22.117,10.827,31.102,18.891l-39.625,39.165
		c-4.147-5.068-9.446-9.215-15.666-11.749s-11.75-3.917-16.818-3.917c-4.607,0-8.524,0.691-11.289,1.843
		c-2.765,1.152-4.147,3.226-4.147,6.451c0,2.765,1.382,4.838,4.377,6.45c2.765,1.383,7.833,2.995,14.283,5.068
		c6.912,2.074,13.823,4.378,21.426,7.373c7.603,2.765,14.284,6.45,20.734,10.598c6.451,4.377,11.519,9.906,15.436,16.356
		c3.917,6.682,6.22,14.284,6.22,23.96c0,9.906-1.843,18.892-5.529,26.264c-3.456,7.833-8.294,14.053-14.054,19.582
		c-5.99,5.529-12.671,9.676-20.504,12.671s-15.666,4.838-24.19,5.76v20.273h-26.955v-20.043c-12.44-0.922-24.42-3.687-36.17-8.524
		c-11.75-4.607-21.656-10.828-30.18-17.97l38.704-41.238c2.074,2.304,4.608,4.378,7.833,6.682c2.995,2.073,6.451,3.916,10.137,5.759
		c3.456,1.613,7.372,2.995,11.058,3.917c3.686,0.921,7.833,1.382,11.519,1.382c3.456,0,6.911-0.69,9.676-1.843
		s4.377-3.456,4.377-6.681c0-1.844-0.461-3.226-1.382-4.378c-0.921-1.151-2.765-2.534-5.068-3.686
		c-2.534-1.152-5.99-2.534-10.367-4.147c-4.377-1.382-9.906-3.225-16.587-5.529c-6.451-2.073-12.441-4.607-18.431-7.603
		c-5.99-2.765-11.058-6.45-15.436-10.597c-4.377-4.147-8.293-9.216-10.828-14.976c-2.534-5.989-3.917-12.671-3.917-20.734
		c0-9.445,1.613-17.739,4.608-24.881c3.225-7.372,7.603-13.362,12.671-18.431c5.529-5.068,11.519-9.215,18.661-12.21
		c7.142-2.995,14.284-5.529,21.656-6.682v-19.812h27.416v19.353C196.977,618.286,208.495,621.051,220.245,625.429z"/>
</g>
<g>
	<path fill="#FFFFFF" d="M395.795,715.508c0-0.922,0-1.844,0-2.534c0-0.691,0-1.383,0-2.073c0-0.691,0-1.613,0.231-2.765h-23.269
		l12.441-35.019h15.436c3.226-9.906,8.294-18.431,14.283-25.572c6.221-7.372,13.362-13.362,21.656-18.431
		c8.524-4.838,17.739-8.754,27.876-11.288s20.734-3.687,32.023-3.687c3.225,0,6.911,0.23,10.827,0.461
		c3.917,0.23,8.063,0.691,12.211,1.151c3.916,0.461,8.063,1.152,11.749,2.074c3.687,0.69,7.142,1.612,9.906,2.764l-17.739,44.464
		c-3.456-1.151-8.063-2.304-13.362-3.226c-5.529-0.921-10.367-1.382-14.975-1.382c-3.225,0-6.45,0.23-9.676,0.691
		s-6.451,1.382-9.215,2.304c-2.766,1.151-5.76,2.304-7.834,3.686c-2.303,1.383-3.916,3.226-5.528,5.529h61.973l-12.211,35.019
		h-60.59c-0.23,1.151-0.23,2.073-0.23,2.765c0,0.69,0,1.382,0,2.073c0,0.921,0,1.843,0,2.534c0,0.922,0,1.843,0.23,3.226h57.825
		l-11.519,34.326h-38.704c2.304,3.917,6.681,7.143,12.901,9.216c6.45,2.073,12.901,3.226,19.582,3.226
		c6.221,0,12.211-0.691,18.431-2.074c5.99-1.382,10.828-2.995,14.284-5.068l8.063,46.076c-4.608,2.534-10.828,4.378-18.892,6.451
		c-8.063,1.612-17.278,2.534-28.106,2.534c-11.059,0-21.195-1.383-30.641-4.146c-9.446-2.765-17.74-6.912-25.112-11.98
		s-13.592-11.519-18.891-19.121s-9.216-15.666-11.75-25.112h-28.106l11.289-34.326h12.44
		C395.795,717.581,395.795,716.429,395.795,715.508z"/>
</g>
<path fill="#9BA1A6" d="M794.816,897.509c-98.373,0-178.776-80.173-178.776-178.776c0-98.603,80.173-178.545,178.776-178.545
	s178.776,80.173,178.776,178.775C973.593,817.566,893.42,897.509,794.816,897.509z"/>
<g>
	<path fill="#FFFFFF" d="M809.1,672.887c0.922-2.534,1.383-5.529,1.383-8.294c0-6.45-2.304-11.058-7.372-14.283
		c-4.607-3.226-11.75-4.838-20.734-4.838c-8.755,0-15.666,1.151-21.656,3.226c-5.759,2.073-11.058,4.607-16.356,7.372
		l-13.132-34.788c5.989-3.455,13.362-6.911,22.577-9.676c9.215-2.995,20.043-4.377,32.714-4.377
		c20.965,0,37.553,5.529,48.841,16.587c11.52,10.828,17.279,25.803,17.279,44.925c0,0.921,0,1.843-0.23,2.534
		c0,0.691-0.23,1.382-0.23,2.073h16.127v29.489h-34.097c-5.529,4.377-11.52,8.754-18.2,12.44
		c-6.682,3.686-12.901,7.603-19.122,11.288h71.419v29.489h-99.756c-0.23,0.922-0.23,2.304-0.23,4.146
		c0,6.451,2.305,11.52,7.373,16.127c4.607,4.147,12.9,6.682,24.189,6.682c11.52,0,21.195-1.383,28.567-4.147
		s13.823-5.76,19.353-8.524l12.901,35.019c-4.839,2.995-12.44,6.681-22.348,10.137c-10.137,3.456-23.269,5.529-39.626,5.529
		c-24.881,0-43.312-5.529-55.061-16.127c-11.75-10.598-17.739-25.342-17.739-44.233v-4.377h-11.75v-30.18h25.573
		c4.607-4.839,10.137-9.216,16.126-12.901c5.99-3.687,11.979-7.373,18.2-10.598h-59.899v-29.72H809.1z"/>
</g>
</svg>
