<?xml version="1.0" encoding="utf-8"?>
<!-- Generator: Adobe Illustrator 16.0.0, SVG Export Plug-In . SVG Version: 6.00 Build 0)  -->
<!DOCTYPE svg PUBLIC "-//W3C//DTD SVG 1.1//EN" "http://www.w3.org/Graphics/SVG/1.1/DTD/svg11.dtd">
<svg version="1.1" id="Layer_1" xmlns="http://www.w3.org/2000/svg" xmlns:xlink="http://www.w3.org/1999/xlink" x="0px" y="0px"
	 width="700px" height="140px" viewBox="0 0 700 140" enable-background="new 0 0 700 140" xml:space="preserve">
<path id="svg_3" fill="#9BA1A6" d="M575.43,19.4c8.471-3.23,17.931-2.88,26.53-0.31c8.601,2.59,15.65,10.08,17.25,18.98
	c2.03,8.97-0.85,18.25-4.64,26.36c-7.53,14.1-16.631,27.28-25.49,40.57c9.64,0.01,19.28,0,28.92,0v18
	c-19.34-0.01-38.689,0.01-58.03-0.01c-0.12-5,0.681-9.94,0.7-14.93c9.891-17.17,20.891-33.73,30.05-51.331
	c2.771-6.31,6.391-13.39,3.931-20.38c-1.551-5.09-10.461-4.47-11.24,0.86c-0.79,5.56-0.271,11.2-0.41,16.79h-23
	c-0.26-5.63,0.43-11.22,0.98-16.81C562.49,29.42,567.88,22.19,575.43,19.4z"/>
<path id="svg_4" fill="#C8CBCE" d="M149.01,18.01c20.99-0.02,41.99-0.02,62.98,0c0.02,34.66,0.02,69.32,0,103.98
	c-8.99,0.02-17.99,0.02-26.98,0c-0.04-27.66,0.021-55.33-0.02-82.99h-8.98c-0.04,27.66,0.021,55.33-0.02,82.99
	c-8.99,0.02-17.99,0.02-26.98,0C148.99,87.33,148.99,52.67,149.01,18.01z"/>
<path id="svg_8" fill="#C8CBCE" d="M291.01,36.01c7.66-0.02,15.32-0.02,22.98,0c0.08,15.271-0.11,30.54,0.09,45.801
	c6.12-15.07,11-30.621,16.88-45.791c8.01-0.04,16.02-0.03,24.03-0.01c0.02,28.66,0.02,57.32,0,85.98c-7.66,0.02-15.32,0.02-22.98,0
	c-0.12-15.51,0.18-31.03-0.15-46.54c-5.85,15.46-11.28,31.069-17.07,46.54c-7.93,0.02-15.85,0.02-23.78,0
	C290.99,93.33,290.99,64.67,291.01,36.01z"/>
<path id="svg_10" fill="#C8CBCE" d="M495.01,36.01c18.66-0.02,37.32-0.02,55.98,0c0.02,6,0.02,11.99,0,17.98
	c-5,0.01-9.99,0.01-14.98,0.02c-0.04,22.66,0.021,45.32-0.02,67.98c-8.66,0.02-17.32,0.02-25.98,0
	c-0.04-22.66,0.021-45.32-0.02-67.98c-5-0.01-9.99-0.01-14.98-0.02C494.98,48,494.98,42.01,495.01,36.01z"/>
<path fill="#C8CBCE" d="M129.15,17.17c-35.32-0.1-70.64-0.03-105.96-0.04c0.03,16.92-0.01,33.83,0.02,50.75
	c8.75,0.19,17.65-0.61,26.21,1.62c9.34,2.12,18.15,7.76,22.73,16.35c6.14,10.811,5.56,23.61,5.52,35.61
	c17.15,0.06,34.31,0.08,51.46-0.01C129.22,86.689,129.18,51.93,129.15,17.17z M107.28,99.88c-2.8,0-5.6-0.01-8.39-0.021
	c-1.84-14.5-7.85-28.959-19.17-38.6C70.11,52.72,57.49,48.7,44.99,46.8c-0.021-2.69,0.01-5.38,0.09-8.06
	c20.74-0.08,41.48-0.06,62.21-0.01C107.35,59.12,107.38,79.5,107.28,99.88z"/>
<path fill="#9BA1A6" d="M681,86.99V19c-10.98,0.01-21.95-0.02-32.92,0c-1.61-0.33-1.77,1.64-2.22,2.66
	c-7.07,21.64-14.32,43.23-21.48,64.85c-0.89,6.09-0.14,12.34-0.38,18.49h31v18h26v-18c2.33,0,4.66,0,7-0.01V87.01
	C685.66,87,683.33,87,681,86.99z M655,87c-4.061,0-8.11,0.02-12.16-0.04c3.98-14.84,7.92-29.69,12.03-44.49
	C655.17,57.31,654.92,72.15,655,87z"/>
<path fill="#C8CBCE" d="M280.99,47.1c-1.72-8.79-12.18-13.84-20.43-11.41c-5.15,1-9.16,4.61-12.57,8.38
	c0.06-2.68,0.14-5.36,0.21-8.04c-8.73-0.06-17.46-0.03-26.19-0.02c-0.02,32.66-0.02,65.32,0,97.98c8.66,0.02,17.32,0.02,25.98,0
	c0.04-6.381-0.01-12.75,0.01-19.131c3.29,3.591,7.02,7.201,11.91,8.381c6.75,1.979,14.96-0.48,18.91-6.46
	c3.02-5.07,2.399-11.19,3.12-16.83c0.16-12.65-0.01-25.31,0.08-37.96C282.11,57.01,281.55,52.04,280.99,47.1z M256.02,100.02
	c0.03,2.851-0.16,5.711-0.59,8.53c-1.96,0.3-4,0.75-5.939,0.091c-1.64-1.761-1.3-4.351-1.47-6.551
	c-0.04-15.06-0.02-30.119-0.01-45.17c0.18-2.21-0.21-4.83,1.49-6.55c1.94-0.67,4-0.22,5.96,0.06c0.78,5.16,0.51,10.38,0.54,15.57
	C256.01,77.34,255.98,88.68,256.02,100.02z"/>
<path id="svg_15" fill="#9BA1A6" d="M23.06,80.83c13.83-0.01,27.66-0.03,41.49,0.01c0,13.59,0,27.17,0.01,40.76
	c-13.84,0.03-27.67,0-41.5,0.01C23.08,108.02,23.07,94.43,23.06,80.83z"/>
<path fill="#C8CBCE" d="M489.83,53.31c-0.8-8.58-8.25-15.17-16.37-16.88c-6.09-1.18-12.39-2.03-18.54-0.77
	c-7.96,0.92-15.91,5.11-19.979,12.19c-2.98,6.93-3,14.71-2.931,22.14c8.32,0.02,16.65,0.02,24.98,0c0.16-6.51-0.42-13.07,0.58-19.54
	c2.189-0.28,5.66-1.41,6.62,1.44c1.34,3.89,0.699,8.16,0.8,12.21c-0.26,1.77,0.21,4.21-1.65,5.24c-8.27,5.29-18.49,6.73-26.43,12.6
	c-5.16,3.951-4.65,11.211-4.95,17.03c0.19,6.83-0.3,14.94,4.91,20.171c5.649,4.869,14.38,6.329,21.09,2.799
	c3.12-1.539,5.03-4.569,7.03-7.27c0.02,2.439,0.01,4.88,0.029,7.33c8.65,0,17.311,0.02,25.971-0.01
	C490.73,99.09,491.811,76.141,489.83,53.31z M464.43,108.57c-2,0.33-4.02,0.399-6.04,0.27c-2.189-4.99-1.3-10.609-1.27-15.89
	c-0.14-5.17,4.2-8.58,7.76-11.601C464.89,90.42,465.52,99.55,464.43,108.57z"/>
<path fill="#C8CBCE" d="M424.09,89.01c-1.91-7.4-9.06-11.84-16.189-13.17c4.09-1.029,8.51-2.23,11.42-5.52
	c2.8-3.37,3.609-7.94,3.649-12.2c-0.479-5.99-1.46-12.65-6.17-16.9c-5.569-4.4-13.02-4.6-19.78-5.189
	c-10.67-0.08-21.34-0.021-32.01-0.021c-0.02,28.66-0.02,57.32,0,85.98c14.891-0.28,29.87,0.89,44.66-1.221
	c5.41-0.81,11.311-3.369,13.17-8.97C425.21,104.54,425.85,96.48,424.09,89.01z M391.05,53.89c2.75,0.2,7-0.2,7.761,3.29
	c0.06,3.42,1.379,8.36-2.25,10.4c-1.811,0.41-3.67,0.4-5.511,0.52C390.96,63.37,390.96,58.63,391.05,53.89z M398.62,100.8
	c-0.75,3.431-4.87,3.11-7.57,3.33c-0.09-6.75-0.08-13.489,0-20.239c2.57,0.289,6.17-0.351,7.48,2.549
	C399.32,91.16,399.23,96.07,398.62,100.8z"/>
</svg>
