<svg xmlns="http://www.w3.org/2000/svg" viewBox="0 0 283.52 280.26"><defs><style>.cls-1{fill:#fff;}</style></defs><title>Ресурс 1</title><g id="Слой_2" data-name="Слой 2"><g id="Layer_1" data-name="Layer 1"><path class="cls-1" d="M243.35,2.26c11.39-4.87,26-1.75,33.59,8.23,8.57,9.73,8.55,25.18,1.2,35.59-3.9,5.45-9.07,9.81-13.79,14.52C250.51,46.84,236.67,33.09,223,19.19,229.32,13.09,234.89,5.55,243.35,2.26Z"/><path class="cls-1" d="M106.08,136.09Q159.57,82.43,213.24,28.94,234,49.53,254.63,70.31,201.2,124,147.43,177.47,126.75,156.78,106.08,136.09Z"/><path class="cls-1" d="M.1,35.72c64.07,0,128.14-.24,192.21.1-6.76,7.37-14.12,14.15-21,21.37-2,1.85-3.89,4.6-7,4.35q-69.82.07-139.64,0,0,96.39,0,192.77c64.27.22,128.53.07,192.79.07.17-43.44,0-86.87,0-130.32-.4-3,1.94-5,3.81-6.87,7.9-7.66,15.53-15.58,23.42-23.24.13,62.07,0,124.14.08,186.22q-122.36.2-244.7,0c-.51-16.37,1.07-32.72,0-49.08Q.06,133.43.1,35.72Z"/><path class="cls-1" d="M70.49,206.13c8.54-20,16.85-40.06,25.58-60,13.83,13.77,27.74,27.47,41.35,41.46-20,8.42-40,17-60,25.44Q73.9,209.62,70.49,206.13Z"/><path class="cls-1" d="M64.41,212.13q3.52,3.45,7,7c-2.41,2.36-4.55,5.13-7.51,6.84-3.75,1.82-8-2.62-6.23-6.31C59.34,216.67,62.07,214.53,64.41,212.13Z"/></g></g></svg>