<svg id="Слой_1" data-name="Слой 1" xmlns="http://www.w3.org/2000/svg" xmlns:xlink="http://www.w3.org/1999/xlink" viewBox="0 0 450.01 450.01"><defs><style>.cls-1{fill:none;}.cls-2{clip-path:url(#clip-path);}.cls-3{fill:#fff;}</style><clipPath id="clip-path" transform="translate(0 0)"><rect class="cls-1" width="450.01" height="450.01"/></clipPath></defs><title>star</title><g class="cls-2"><path class="cls-3" d="M209.47.52A224.52,224.52,0,0,1,311.74,17.35c53.2,21.93,97,65.31,119.81,118.11C464.46,209.83,452.81,302,401,365c-5.66,6-10,13.24-16.37,18.6-5.76,5.24-11.74,10.26-17.43,15.59-57.35,48.41-140.09,63.41-211.22,40.05-38.22-12.36-73.24-35-99.46-65.52C8,320.52-10.81,242.78,6.07,173,21.11,107.95,67,51,127.29,22.33c5.57-3.19,12.14-3.9,17.53-7.47C165.39,6.63,187.4,2.14,209.47.52m-30.78,174.3c-34.2,5.78-68.56,10.67-102.79,16.36,24.1,25.19,49.69,49,74.06,73.94a2.71,2.71,0,0,1,.46,2.27C145,302,139.06,336.54,134.06,371.2,165,355,195.22,337.51,226,321.11c30.82,16.28,61.49,32.86,92.4,49-5.39-34.38-11.65-68.62-17.65-102.89,0-1.05-.52-2.34.28-3.2,24.26-25.07,49.21-49.54,73.18-74.86-33.62-5.14-67.36-9.61-101-14.5-3.44-.53-3.87-4.79-5.47-7.26C253.2,138,239.5,108.24,224.27,79.26c-15.85,31.52-30.21,63.8-45.58,95.56" transform="translate(0 0)"/></g></svg>