<svg xmlns="http://www.w3.org/2000/svg" width="67" height="21" viewBox="0 0 67 21">
    <path fill="#C8CBCE" fill-rule="evenodd" d="M27.462 0H33l-3.465 20H24l3.462-20zM48 .854l-.723 4.41-.478-.235a9.51 9.51 0 0 0-3.99-.78c-2.088 0-3.054.905-3.054 1.75-.012.954 1.13 1.582 2.993 2.523 3.076 1.452 4.497 3.213 4.477 5.527C47.183 18.272 43.545 21 37.94 21c-2.392-.025-4.695-.518-5.94-1.085l.748-4.555.688.324c1.75.76 2.885 1.068 5.019 1.068 1.532 0 3.177-.623 3.19-1.987.01-.89-.688-1.527-2.764-2.524-2.022-.973-4.701-2.604-4.672-5.527C34.241 2.759 37.952 0 43.221 0c2.067 0 3.723.442 4.779.854zM62.717 0L67 20h-4.91s-.485-2.298-.644-2.999l-6.776-.008c-.205.541-1.114 3.007-1.114 3.007H48l7.858-18.34C56.414.356 57.362 0 58.628 0h4.09zM56 14h5l-1.394-6.16L59.198 6c-.304.801-.834 2.093-.798 2.036 0 0-1.902 4.735-2.4 5.964zm-42.717-3.111l.571 2.775L19.208.012H25l-8.609 19.981-5.785.007L5.744 2.612C4.063 1.682 2.144.935 0 .417L.07 0h8.817c1.188.044 2.148.422 2.48 1.69l1.916 9.199z"/>
</svg>
